# xmcd
#
# Track frame offsets:
#	150
#	6338
#	24548
#	35973
#	49545
#	67623
#	83551
#	104499
#	117023
#	128998
#	140325
#	154736
#	168084
#	179382
#	194137
#	211620
#	227240
#	245263
#	262038
#	280930
#	300684
#
# Disc length: 4255
#
# Revision: 3
# Processed by: cddbd v1.5.1PL0 Copyright (c) Steve Scherf et al.
# Submitted via: CDex 1.40Beta8
# Normalized: r2:TDELIM( - )
#
DISCID=1f109d15
DTITLE=Vitamina H - Zona X
DYEAR=2002
DGENRE=Disco
TTITLE0=Tony H e Lady Helena - Vitamina H [Taf-A-Taf RmX]
TTITLE1=Datura - El Sueno [Tony H Remix]
TTITLE2=Azzido Da Bass feat Roland Clark - Speed (Can You Feel It)
TTITLE3=Massimo Vivona - The Other Way
TTITLE4=Dariush - Ira
TTITLE5=Farfa - The Search [Voyager Remix]
TTITLE6=Mario Più - Believe Me
TTITLE7=Umek - Benozal
TTITLE8=Massimo Cominotto - Gula-Matari
TTITLE9=David Carretta - Dehumanized E.P.
TTITLE10=Hiver and Hammer's Hands on Divine - Step by Step
TTITLE11=Mauro Picotto - Back to Cali
TTITLE12=Crw feat Veronika - Like a Cat
TTITLE13=Analog System - Strange Morning in December
TTITLE14=Sven Vath - Mind Games [DG Mix]
TTITLE15=Dj Gius - Metal
TTITLE16=Dj Tomcraft - Overdose [Tony H Remix]
TTITLE17=Gabry Fasano - Syncron
TTITLE18=Tankis and Savietto - Antea
TTITLE19=Kai Tracid - Voyager
TTITLE20=Twister Silence - Listen To Me Mama! [Dj Scot Project Remix]
EXTD=YEAR: 2002 ID3G: 4
EXTT0=
EXTT1=
EXTT2=
EXTT3=
EXTT4=
EXTT5=
EXTT6=
EXTT7=
EXTT8=
EXTT9=
EXTT10=
EXTT11=
EXTT12=
EXTT13=
EXTT14=
EXTT15=
EXTT16=
EXTT17=
EXTT18=
EXTT19=
EXTT20=
PLAYORDER=
